<?xml version="1.0" encoding="iso-8859-1"?>
<!-- Uploaded to: SVG Repo, www.svgrepo.com, Generator: SVG Repo Mixer Tools -->
<svg height="800px" width="800px" version="1.1" id="Layer_1" xmlns="http://www.w3.org/2000/svg" xmlns:xlink="http://www.w3.org/1999/xlink" 
	 viewBox="0 0 264.264 264.264" xml:space="preserve">
<g>
	<g>
		<path style="fill:#4EFFBB;" d="M175.004,93.355V65.391c0-1.563-0.5-3.092-1.434-4.327l-30.776-41.239
			c-1.361-1.782-3.438-2.837-5.696-2.837c-2.221,0-4.299,1.054-5.662,2.837l-30.773,41.239c-0.931,1.237-1.434,2.764-1.434,4.327
			v27.565c-44.748,45.198-44.748,51.197-44.748,54.107v59.383c0,3.964,3.151,7.163,7.093,7.163h36.615v12.983
			c0,20.764,16.73,37.672,37.295,37.672s37.295-16.91,37.295-37.672V213.5h39.372c3.941,0,7.13-3.199,7.13-7.163v-59.383
			C219.285,144.083,219.249,138.081,175.004,93.355z"/>
		<g id="XMLID_13_">
			<g>
				<path style="fill:#302C58;" d="M104.024,216.764h43.924c-3.008,9.381-11.715,16.145-21.962,16.145
					C115.742,232.909,107.035,226.145,104.024,216.764z"/>
				<path style="fill:#302C58;" d="M89.014,97.201l0.323,85.054H59.172v-51.054C61.714,126.619,74.826,112,89.014,97.201z"/>
				<path style="fill:#302C58;" d="M195.561,131.128v51.054h-30.059v-18.583l0.25-66.51
					C179.941,111.927,193.019,126.546,195.561,131.128z"/>
				<path style="fill:#222051;" d="M209.786,129.964v59.381c0,3.964-3.188,7.163-7.13,7.163h-39.375V209.6
					c0,20.764-16.73,37.672-37.295,37.672s-37.295-16.91-37.295-37.672v-12.983H52.076c-3.941,0-7.093-3.199-7.093-7.163v-59.381
					c0-2.91,0-8.909,44.748-54.109V48.4c0-1.563,0.5-3.09,1.434-4.327l30.773-41.236C123.301,1.054,125.379,0,127.6,0
					c2.257,0,4.335,1.054,5.696,2.837l30.775,41.236c0.931,1.237,1.434,2.764,1.434,4.327v27.964
					C209.749,121.092,209.786,127.091,209.786,129.964z M195.561,182.182v-51.054c-2.544-4.582-15.62-19.201-29.808-34.037
					l-0.25,66.51v18.583h30.059v-0.002H195.561z M151.279,163.346V55.563h-16.41v126.692h16.337L151.279,163.346z M149.058,202.437
					v-5.819h-46.145v5.819H149.058z M147.948,216.764h-43.924c3.008,9.381,11.715,16.145,21.962,16.145
					S144.94,226.145,147.948,216.764z M144.15,41.236l-9.137-12.255h-14.796l-9.137,12.255H144.15z M120.65,182.255V55.563h-16.694
					v126.692C103.957,182.255,120.65,182.255,120.65,182.255z M89.338,182.255l-0.323-85.054
					c-14.186,14.799-27.301,29.418-29.842,34v51.054C59.172,182.255,89.338,182.255,89.338,182.255z"/>
			</g>
		</g>
	</g>
</g>
</svg>