<svg width="150" height="90" viewBox="0 0 259 195" fill="none" xmlns="http://www.w3.org/2000/svg">
<g filter="url(#filter0_d_9_6558)">
<path d="M88.7582 88V89H89.7582V88H88.7582ZM85.2482 88H84.2482V89H85.2482V88ZM85.2482 75.013H86.2482V74.013H85.2482V75.013ZM70.9742 75.013V74.013H69.9742V75.013H70.9742ZM70.9742 88V89H71.9742V88H70.9742ZM67.4642 88H66.4642V89H67.4642V88ZM67.4642 60.154V59.154H66.4642V60.154H67.4642ZM70.9742 60.154H71.9742V59.154H70.9742V60.154ZM70.9742 71.932H69.9742V72.932H70.9742V71.932ZM85.2482 71.932V72.932H86.2482V71.932H85.2482ZM85.2482 60.154V59.154H84.2482V60.154H85.2482ZM88.7582 60.154H89.7582V59.154H88.7582V60.154ZM88.7582 87H85.2482V89H88.7582V87ZM86.2482 88V75.013H84.2482V88H86.2482ZM85.2482 74.013H70.9742V76.013H85.2482V74.013ZM69.9742 75.013V88H71.9742V75.013H69.9742ZM70.9742 87H67.4642V89H70.9742V87ZM68.4642 88V60.154H66.4642V88H68.4642ZM67.4642 61.154H70.9742V59.154H67.4642V61.154ZM69.9742 60.154V71.932H71.9742V60.154H69.9742ZM70.9742 72.932H85.2482V70.932H70.9742V72.932ZM86.2482 71.932V60.154H84.2482V71.932H86.2482ZM85.2482 61.154H88.7582V59.154H85.2482V61.154ZM87.7582 60.154V88H89.7582V60.154H87.7582ZM113.375 82.15L112.43 81.8229L112.427 81.8338L113.375 82.15ZM111.425 85.543L110.688 84.8673L110.683 84.8729L110.678 84.8786L111.425 85.543ZM108.344 87.688L108.709 88.6193L108.719 88.6151L108.344 87.688ZM100.505 87.688L100.116 88.6092L100.125 88.6129L100.134 88.6165L100.505 87.688ZM97.4634 85.543L96.7262 86.2187L96.7262 86.2187L97.4634 85.543ZM95.4354 82.15L94.4904 82.4771L94.4942 82.4882L94.4983 82.4991L95.4354 82.15ZM95.9034 71.659L96.8007 72.1003L96.8035 72.0946L95.9034 71.659ZM99.2574 67.993L99.7536 68.8613L99.7651 68.8545L99.2574 67.993ZM109.436 67.993L108.922 68.8505L108.931 68.856L108.94 68.8612L109.436 67.993ZM112.829 71.659L111.935 72.1062L111.939 72.1149L111.944 72.1235L112.829 71.659ZM98.9064 81.799L97.9597 82.1213L97.9639 82.1335L97.9684 82.1456L98.9064 81.799ZM100.934 84.568L101.516 83.7543L101.516 83.7543L100.934 84.568ZM107.876 84.568L107.295 83.7543L107.295 83.7543L107.876 84.568ZM109.865 81.799L108.925 81.4588L108.921 81.4705L109.865 81.799ZM109.865 73.258L110.801 72.9046L110.801 72.9046L109.865 73.258ZM107.837 70.567L107.245 71.3726L107.258 71.3824L107.272 71.3917L107.837 70.567ZM99.7254 71.698L100.55 72.2632L100.55 72.2632L99.7254 71.698ZM113.077 77.509C113.077 79.1631 112.855 80.5961 112.43 81.8229L114.32 82.4771C114.832 80.9998 115.077 79.3389 115.077 77.509H113.077ZM112.427 81.8338C112.025 83.04 111.442 84.0449 110.688 84.8673L112.163 86.2187C113.125 85.1691 113.842 83.912 114.324 82.4662L112.427 81.8338ZM110.678 84.8786C109.954 85.6935 109.057 86.3215 107.97 86.7609L108.719 88.6151C110.076 88.0665 111.233 87.2645 112.173 86.2074L110.678 84.8786ZM107.98 86.7568C106.917 87.1729 105.704 87.39 104.327 87.39V89.39C105.915 89.39 107.38 89.1391 108.709 88.6192L107.98 86.7568ZM104.327 87.39C103.065 87.39 101.918 87.176 100.877 86.7595L100.134 88.6165C101.433 89.136 102.834 89.39 104.327 89.39V87.39ZM100.894 86.7668C99.8567 86.3286 98.9614 85.6974 98.2005 84.8673L96.7262 86.2187C97.6813 87.2606 98.8141 88.0594 100.116 88.6092L100.894 86.7668ZM98.2005 84.8673C97.439 84.0365 96.8266 83.02 96.3725 81.8009L94.4983 82.4991C95.0321 83.932 95.7717 85.1775 96.7262 86.2187L98.2005 84.8673ZM96.3804 81.8229C95.9557 80.5961 95.7334 79.1631 95.7334 77.509H93.7334C93.7334 79.3389 93.979 80.9999 94.4904 82.4771L96.3804 81.8229ZM95.7334 77.509C95.7334 75.3025 96.1058 73.5133 96.8007 72.1003L95.006 71.2177C94.1409 72.9767 93.7334 75.0874 93.7334 77.509H95.7334ZM96.8035 72.0946C97.5019 70.6513 98.4849 69.5862 99.7535 68.8612L98.7612 67.1248C97.1179 68.0638 95.8649 69.4427 95.0032 71.2234L96.8035 72.0946ZM99.7651 68.8545C101.041 68.1027 102.588 67.706 104.444 67.706V65.706C102.297 65.706 100.386 66.1673 98.7497 67.1315L99.7651 68.8545ZM104.444 67.706C106.187 67.706 107.668 68.0981 108.922 68.8505L109.951 67.1355C108.345 66.1719 106.498 65.706 104.444 65.706V67.706ZM108.94 68.8612C110.212 69.5879 111.21 70.657 111.935 72.1062L113.724 71.2118C112.836 69.437 111.573 68.0621 109.933 67.1248L108.94 68.8612ZM111.944 72.1235C112.682 73.5305 113.077 75.311 113.077 77.509H115.077C115.077 75.079 114.641 72.9595 113.715 71.1945L111.944 72.1235ZM97.2824 77.509C97.2824 79.2285 97.5004 80.7719 97.9597 82.1213L99.853 81.4767C99.4804 80.3821 99.2824 79.0655 99.2824 77.509H97.2824ZM97.9684 82.1456C98.4698 83.5024 99.258 84.5995 100.353 85.3817L101.516 83.7543C100.791 83.2365 100.227 82.4876 99.8444 81.4523L97.9684 82.1456ZM100.353 85.3817C101.472 86.1807 102.847 86.543 104.405 86.543V84.543C103.156 84.543 102.217 84.2553 101.516 83.7543L100.353 85.3817ZM104.405 86.543C105.964 86.543 107.339 86.1807 108.458 85.3817L107.295 83.7543C106.594 84.2553 105.655 84.543 104.405 84.543V86.543ZM108.458 85.3817C109.558 84.5959 110.335 83.4921 110.81 82.1275L108.921 81.4705C108.564 82.4979 108.015 83.2401 107.295 83.7543L108.458 85.3817ZM110.806 82.1391C111.296 80.7838 111.528 79.2341 111.528 77.509H109.528C109.528 79.0599 109.319 80.3702 108.925 81.4589L110.806 82.1391ZM111.528 77.509C111.528 75.7618 111.297 74.218 110.801 72.9046L108.93 73.6114C109.318 74.638 109.528 75.9282 109.528 77.509H111.528ZM110.801 72.9046C110.297 71.5699 109.503 70.4969 108.403 69.7423L107.272 71.3917C107.991 71.8851 108.55 72.6061 108.93 73.6114L110.801 72.9046ZM108.43 69.7613C107.328 68.9516 105.945 68.592 104.366 68.592V70.592C105.648 70.592 106.578 70.8824 107.245 71.3726L108.43 69.7613ZM104.366 68.592C101.998 68.592 100.096 69.3874 98.9004 71.1328L100.55 72.2632C101.278 71.2006 102.47 70.592 104.366 70.592V68.592ZM98.9004 71.1328C97.7836 72.7627 97.2824 74.924 97.2824 77.509H99.2824C99.2824 75.154 99.7431 73.4413 100.55 72.2632L98.9004 71.1328ZM132.153 76.885L131.945 75.9069L131.153 76.0754V76.885H132.153ZM132.153 77.041H131.153V77.9108L132.014 78.0313L132.153 77.041ZM135.546 78.445L134.929 79.2321L134.935 79.2373L134.942 79.2424L135.546 78.445ZM136.482 84.334L135.569 83.9249L135.563 83.9382L135.558 83.9516L136.482 84.334ZM132.387 87.571L132.646 88.5368L132.657 88.5339L132.668 88.5307L132.387 87.571ZM119.517 88H118.517V89H119.517V88ZM119.517 67.096V66.096H118.517V67.096H119.517ZM132.465 67.603L132.187 68.5637L132.2 68.5673L132.212 68.5706L132.465 67.603ZM135.273 69.241L134.517 69.8959L134.529 69.9094L134.541 69.9224L135.273 69.241ZM132.075 79.303L131.579 80.1712L131.579 80.1712L132.075 79.303ZM122.949 78.523V77.523H121.949V78.523H122.949ZM122.949 85.231H121.949V86.231H122.949V85.231ZM132.075 84.49L132.552 85.3689L132.561 85.3637L132.571 85.3582L132.075 84.49ZM131.763 70.645L131.208 71.477L131.226 71.4888L131.244 71.4998L131.763 70.645ZM122.949 69.943V68.943H121.949V69.943H122.949ZM122.949 75.676H121.949V76.676H122.949V75.676ZM131.529 74.974L131.061 74.0902L131.061 74.0902L131.529 74.974ZM135.326 72.361C135.326 73.449 135.008 74.1734 134.473 74.6719L135.838 76.1341C136.864 75.1766 137.326 73.873 137.326 72.361H135.326ZM134.473 74.6719C133.847 75.2563 133.02 75.6781 131.945 75.9069L132.361 77.8631C133.73 77.5719 134.904 77.0057 135.838 76.1341L134.473 74.6719ZM131.153 76.885V77.041H133.153V76.885H131.153ZM132.014 78.0313C133.153 78.1908 134.116 78.5948 134.929 79.2321L136.163 77.6579C135.052 76.7872 133.752 76.2552 132.291 76.0507L132.014 78.0313ZM134.942 79.2424C135.584 79.728 135.989 80.5297 135.989 81.877H137.989C137.989 80.1043 137.431 78.618 136.149 77.6476L134.942 79.2424ZM135.989 81.877C135.989 82.63 135.846 83.3084 135.569 83.9249L137.394 84.7431C137.794 83.8516 137.989 82.892 137.989 81.877H135.989ZM135.558 83.9516C135.314 84.5411 134.926 85.0581 134.371 85.5061L135.628 87.0619C136.425 86.4179 137.026 85.6349 137.406 84.7164L135.558 83.9516ZM134.371 85.5061C133.822 85.9495 133.079 86.3264 132.106 86.6113L132.668 88.5307C133.826 88.1916 134.825 87.7105 135.628 87.0619L134.371 85.5061ZM132.128 86.6052C131.17 86.8619 129.976 87 128.526 87V89C130.092 89 131.471 88.8521 132.646 88.5368L132.128 86.6052ZM128.526 87H119.517V89H128.526V87ZM120.517 88V67.096H118.517V88H120.517ZM119.517 68.096H128.487V66.096H119.517V68.096ZM128.487 68.096C129.894 68.096 131.124 68.2567 132.187 68.5637L132.742 66.6423C131.465 66.2733 130.043 66.096 128.487 66.096V68.096ZM132.212 68.5706C133.252 68.8419 133.998 69.2967 134.517 69.8959L136.028 68.5861C135.196 67.6253 134.069 66.9881 132.717 66.6354L132.212 68.5706ZM134.541 69.9224C135.025 70.4429 135.326 71.2127 135.326 72.361H137.326C137.326 70.8573 136.924 69.5471 136.005 68.5596L134.541 69.9224ZM134.44 81.877C134.44 80.383 133.842 79.1611 132.571 78.4348L131.579 80.1712C132.127 80.4849 132.44 80.979 132.44 81.877H134.44ZM132.571 78.4348C131.439 77.788 129.894 77.523 128.058 77.523V79.523C129.757 79.523 130.89 79.778 131.579 80.1712L132.571 78.4348ZM128.058 77.523H122.949V79.523H128.058V77.523ZM121.949 78.523V85.231H123.949V78.523H121.949ZM122.949 86.231H128.136V84.231H122.949V86.231ZM128.136 86.231C129.921 86.231 131.429 85.9784 132.552 85.3689L131.598 83.6111C130.9 83.9896 129.782 84.231 128.136 84.231V86.231ZM132.571 85.3582C133.85 84.6275 134.44 83.3868 134.44 81.877H132.44C132.44 82.8112 132.12 83.3125 131.579 83.6218L132.571 85.3582ZM133.855 72.79C133.855 71.5187 133.361 70.4454 132.282 69.7902L131.244 71.4998C131.621 71.7286 131.855 72.0853 131.855 72.79H133.855ZM132.317 69.8129C131.359 69.1739 129.949 68.943 128.292 68.943V70.943C129.858 70.943 130.762 71.1801 131.208 71.477L132.317 69.8129ZM128.292 68.943H122.949V70.943H128.292V68.943ZM121.949 69.943V75.676H123.949V69.943H121.949ZM122.949 76.676H127.668V74.676H122.949V76.676ZM127.668 76.676C129.422 76.676 130.901 76.4377 131.997 75.8578L131.061 74.0902C130.388 74.4463 129.293 74.676 127.668 74.676V76.676ZM131.997 75.8578C132.57 75.5542 133.048 75.1394 133.378 74.596C133.708 74.0519 133.855 73.4373 133.855 72.79H131.855C131.855 73.1307 131.78 73.3741 131.668 73.558C131.556 73.7426 131.371 73.9258 131.061 74.0902L131.997 75.8578ZM155.559 68.422L156.234 67.6842L156.234 67.6842L155.559 68.422ZM157.392 88V89H158.392V88H157.392ZM154.896 88L153.92 88.2183L154.095 89H154.896V88ZM154.233 85.036L155.209 84.8177L155.034 84.036H154.233V85.036ZM154.077 85.036V84.036H153.594L153.294 84.4146L154.077 85.036ZM152.205 86.947L152.826 87.7311L152.83 87.7279L152.205 86.947ZM150.021 88.039L149.751 87.0763L149.743 87.0787L150.021 88.039ZM143.664 87.727L143.256 88.6399L143.265 88.6437L143.664 87.727ZM141.324 85.699L140.471 86.2205L140.478 86.2312L141.324 85.699ZM142.923 77.392L143.487 78.218L143.496 78.2118L142.923 77.392ZM150.489 75.52L150.52 76.5195L150.522 76.5195L150.489 75.52ZM154.038 75.403L154.071 76.4025L155.038 76.3706V75.403H154.038ZM152.907 70.528L152.24 71.2726L152.24 71.2726L152.907 70.528ZM146.589 70.021L146.89 70.9746L146.902 70.971L146.913 70.9672L146.589 70.021ZM143.82 71.113L142.895 71.4916L143.298 72.4775L144.257 72.0128L143.82 71.113ZM142.767 68.539L142.29 67.6601L141.502 68.0879L141.842 68.9176L142.767 68.539ZM146.004 67.291L146.266 68.2562L146.275 68.2537L146.284 68.251L146.004 67.291ZM150.918 77.899L150.88 76.8997L150.878 76.8998L150.918 77.899ZM145.497 79.147L144.914 78.3346L144.904 78.3419L145.497 79.147ZM145.068 84.802L144.454 85.5914L144.461 85.5967L144.468 85.602L145.068 84.802ZM152.244 84.178L152.88 84.9505L152.89 84.942L152.244 84.178ZM153.999 77.782H154.999V76.7433L153.961 76.7827L153.999 77.782ZM149.904 67.745C152.332 67.745 153.924 68.2813 154.884 69.1598L156.234 67.6842C154.751 66.3267 152.572 65.745 149.904 65.745V67.745ZM154.884 69.1598C155.817 70.0134 156.392 71.467 156.392 73.765H158.392C158.392 71.175 157.745 69.0666 156.234 67.6842L154.884 69.1598ZM156.392 73.765V88H158.392V73.765H156.392ZM157.392 87H154.896V89H157.392V87ZM155.872 87.7817L155.209 84.8177L153.257 85.2543L153.92 88.2183L155.872 87.7817ZM154.233 84.036H154.077V86.036H154.233V84.036ZM153.294 84.4146C152.736 85.1186 152.164 85.6998 151.581 86.1661L152.83 87.7279C153.547 87.1542 154.223 86.4614 154.861 85.6574L153.294 84.4146ZM151.585 86.163C151.073 86.568 150.466 86.8751 149.751 87.0763L150.292 89.0017C151.24 88.7349 152.09 88.314 152.826 87.731L151.585 86.163ZM149.743 87.0787C149.055 87.2783 148.167 87.39 147.057 87.39V89.39C148.288 89.39 149.376 89.2677 150.3 88.9993L149.743 87.0787ZM147.057 87.39C145.929 87.39 144.937 87.1907 144.064 86.8103L143.265 88.6437C144.42 89.1473 145.689 89.39 147.057 89.39V87.39ZM144.073 86.8142C143.264 86.4523 142.637 85.9082 142.171 85.1668L140.478 86.2312C141.156 87.3098 142.089 88.1177 143.256 88.6398L144.073 86.8142ZM142.178 85.1775C141.725 84.4369 141.466 83.4598 141.466 82.189H139.466C139.466 83.7262 139.78 85.0891 140.471 86.2204L142.178 85.1775ZM141.466 82.189C141.466 80.4203 142.138 79.1391 143.487 78.2179L142.36 76.566C140.433 77.8809 139.466 79.7977 139.466 82.189H141.466ZM143.496 78.2118C144.898 77.2328 147.186 76.6213 150.52 76.5195L150.459 74.5205C146.98 74.6267 144.225 75.2632 142.351 76.5722L143.496 78.2118ZM150.522 76.5195L154.071 76.4025L154.005 74.4035L150.456 74.5205L150.522 76.5195ZM155.038 75.403V74.155H153.038V75.403H155.038ZM155.038 74.155C155.038 72.3229 154.651 70.7485 153.575 69.7834L152.24 71.2726C152.671 71.6595 153.038 72.5031 153.038 74.155H155.038ZM153.575 69.7834C152.58 68.8916 151.244 68.514 149.709 68.514V70.514C150.931 70.514 151.727 70.8124 152.24 71.2726L153.575 69.7834ZM149.709 68.514C148.512 68.514 147.363 68.6996 146.266 69.0748L146.913 70.9672C147.792 70.6664 148.722 70.514 149.709 70.514V68.514ZM146.288 69.0674C145.258 69.3928 144.289 69.7743 143.384 70.2132L144.257 72.0128C145.067 71.6197 145.945 71.2732 146.89 70.9746L146.288 69.0674ZM144.746 70.7344L143.693 68.1604L141.842 68.9176L142.895 71.4916L144.746 70.7344ZM143.244 69.4179C144.072 68.9688 145.075 68.5787 146.266 68.2562L145.743 66.3258C144.438 66.6793 143.283 67.1212 142.29 67.6601L143.244 69.4179ZM146.284 68.251C147.438 67.9146 148.643 67.745 149.904 67.745V65.745C148.461 65.745 147.067 65.9394 145.724 66.331L146.284 68.251ZM150.878 76.8998C148.254 77.0048 146.185 77.4224 144.914 78.3347L146.081 79.9593C146.838 79.4156 148.382 79.0012 150.958 78.8982L150.878 76.8998ZM144.904 78.3419C143.637 79.2754 143.015 80.614 143.015 82.228H145.015C145.015 81.19 145.381 80.4746 146.091 79.9521L144.904 78.3419ZM143.015 82.228C143.015 83.6012 143.436 84.7994 144.454 85.5914L145.682 84.0126C145.297 83.7126 145.015 83.1948 145.015 82.228H143.015ZM144.468 85.602C145.406 86.3052 146.553 86.621 147.837 86.621V84.621C146.885 84.621 146.187 84.3908 145.668 84.002L144.468 85.602ZM147.837 86.621C149.796 86.621 151.501 86.0835 152.879 84.9504L151.609 83.4056C150.647 84.1965 149.414 84.621 147.837 84.621V86.621ZM152.89 84.942C154.352 83.707 154.999 81.8748 154.999 79.654H152.999C152.999 81.4892 152.477 82.673 151.599 83.414L152.89 84.942ZM154.999 79.654V77.782H152.999V79.654H154.999ZM153.961 76.7827L150.88 76.8997L150.956 78.8983L154.037 78.7813L153.961 76.7827ZM165.136 88V89H165.679L165.975 88.5437L165.136 88ZM161.158 88L160.331 87.4377L159.268 89H161.158V88ZM167.125 79.225L167.952 79.7873L168.751 78.6119L167.375 78.2567L167.125 79.225ZM164.785 78.25L164.257 79.0996L164.268 79.1063L164.279 79.1127L164.785 78.25ZM162.952 76.339L162.08 76.8293L162.087 76.8411L162.952 76.339ZM164.278 68.695L164.887 69.4877L164.897 69.4803L164.278 68.695ZM179.02 67.096H180.02V66.096H179.02V67.096ZM179.02 88V89H180.02V88H179.02ZM175.588 88H174.588V89H175.588V88ZM175.588 79.693H176.588V78.693H175.588V79.693ZM170.518 79.693V78.693H169.974L169.678 79.1493L170.518 79.693ZM166.891 75.988L166.33 76.8163L166.344 76.8257L166.359 76.8346L166.891 75.988ZM175.588 76.846V77.846H176.588V76.846H175.588ZM175.588 69.943H176.588V68.943H175.588V69.943ZM166.579 70.879L165.914 70.1316L165.907 70.1378L165.9 70.1442L166.579 70.879ZM165.136 87H161.158V89H165.136V87ZM161.985 88.5623L167.952 79.7873L166.298 78.6627L160.331 87.4377L161.985 88.5623ZM167.375 78.2567C166.663 78.073 165.968 77.7848 165.29 77.3873L164.279 79.1127C165.109 79.5992 165.975 79.961 166.875 80.1933L167.375 78.2567ZM165.312 77.4004C164.704 77.0232 164.206 76.5085 163.816 75.8369L162.087 76.8411C162.633 77.7815 163.357 78.5408 164.257 79.0996L165.312 77.4004ZM163.823 75.8487C163.46 75.2027 163.25 74.3553 163.25 73.258H161.25C161.25 74.6047 161.508 75.8113 162.08 76.8293L163.823 75.8487ZM163.25 73.258C163.25 71.5057 163.826 70.3041 164.887 69.4876L163.668 67.9024C162.025 69.1659 161.25 71.0063 161.25 73.258H163.25ZM164.897 69.4803C166.026 68.5901 167.581 68.096 169.66 68.096V66.096C167.267 66.096 165.234 66.6679 163.659 67.9097L164.897 69.4803ZM169.66 68.096H179.02V66.096H169.66V68.096ZM178.02 67.096V88H180.02V67.096H178.02ZM179.02 87H175.588V89H179.02V87ZM176.588 88V79.693H174.588V88H176.588ZM175.588 78.693H170.518V80.693H175.588V78.693ZM169.678 79.1493L164.296 87.4563L165.975 88.5437L171.357 80.2367L169.678 79.1493ZM164.565 73.297C164.565 74.7781 165.135 76.0075 166.33 76.8163L167.451 75.1597C166.879 74.7725 166.565 74.2079 166.565 73.297H164.565ZM166.359 76.8346C167.489 77.5451 168.961 77.846 170.674 77.846V75.846C169.162 75.846 168.113 75.5749 167.423 75.1414L166.359 76.8346ZM170.674 77.846H175.588V75.846H170.674V77.846ZM176.588 76.846V69.943H174.588V76.846H176.588ZM175.588 68.943H170.011V70.943H175.588V68.943ZM170.011 68.943C168.336 68.943 166.89 69.2648 165.914 70.1316L167.243 71.6264C167.672 71.2452 168.514 70.943 170.011 70.943V68.943ZM165.9 70.1442C165.003 70.9726 164.565 72.053 164.565 73.297H166.565C166.565 72.565 166.802 72.0334 167.257 71.6138L165.9 70.1442ZM59.3762 117.369L59.0228 118.304L59.032 118.308L59.0412 118.311L59.3762 117.369ZM62.1062 119.241L61.3182 119.857L61.323 119.863L61.3278 119.869L62.1062 119.241ZM62.0282 125.247L62.7481 125.941L62.7541 125.935L62.7601 125.928L62.0282 125.247ZM59.1422 126.846L58.8756 125.882L58.1422 126.085V126.846H59.1422ZM59.1422 127.002H58.1422V127.76L58.8715 127.965L59.1422 127.002ZM61.4432 127.977L60.9334 128.837L60.9334 128.837L61.4432 127.977ZM63.1202 129.615L62.2686 130.139L62.2758 130.151L62.2833 130.162L63.1202 129.615ZM62.8082 135.348L61.9869 134.778L61.9814 134.785L61.9762 134.793L62.8082 135.348ZM59.8832 137.571L59.5025 136.646L59.496 136.649L59.8832 137.571ZM52.0052 138.234L51.8884 139.227L51.8917 139.228L52.0052 138.234ZM49.5872 137.766L49.3031 138.725L49.3125 138.728L49.5872 137.766ZM47.7152 137.025H46.7152V137.63L47.2512 137.911L47.7152 137.025ZM47.7152 133.944L48.141 133.039L46.7152 132.368V133.944H47.7152ZM50.8352 135.075L50.5633 136.037L50.5686 136.039L50.8352 135.075ZM57.6212 135.231L57.3581 134.266L57.3505 134.268L57.6212 135.231ZM59.6492 134.139L60.3563 134.846L60.3654 134.837L60.3742 134.828L59.6492 134.139ZM59.7272 130.083L58.9653 130.731L58.9735 130.74L58.982 130.75L59.7272 130.083ZM57.7382 128.913L57.4482 129.87L57.4561 129.872L57.7382 128.913ZM51.6152 128.523H50.6152V129.523H51.6152V128.523ZM51.6152 125.715V124.715H50.6152V125.715H51.6152ZM58.1672 125.013L58.5692 125.929L58.5794 125.924L58.1672 125.013ZM58.5572 120.294L58.0346 121.147L58.0467 121.154L58.5572 120.294ZM52.0052 119.904L52.2408 120.876L52.251 120.873L52.2611 120.871L52.0052 119.904ZM49.1582 120.879L48.2439 121.284L48.6428 122.185L49.5494 121.799L49.1582 120.879ZM47.9492 118.149L47.5451 117.234L46.6296 117.639L47.0349 118.554L47.9492 118.149ZM55.2422 117.706C56.7385 117.706 57.9915 117.915 59.0228 118.304L59.7296 116.434C58.4209 115.939 56.918 115.706 55.2422 115.706V117.706ZM59.0412 118.311C60.0643 118.675 60.8044 119.199 61.3182 119.857L62.8942 118.625C62.108 117.619 61.0282 116.895 59.7112 116.427L59.0412 118.311ZM61.3278 119.869C61.8159 120.474 62.0812 121.232 62.0812 122.205H64.0812C64.0812 120.838 63.6966 119.62 62.8846 118.613L61.3278 119.869ZM62.0812 122.205C62.0812 123.289 61.7876 124.038 61.2963 124.566L62.7601 125.928C63.6729 124.948 64.0812 123.669 64.0812 122.205H62.0812ZM61.3084 124.553C60.7585 125.123 59.9684 125.58 58.8756 125.882L59.4088 127.81C60.76 127.436 61.894 126.827 62.7481 125.941L61.3084 124.553ZM58.1422 126.846V127.002H60.1422V126.846H58.1422ZM58.8715 127.965C59.6246 128.176 60.3106 128.468 60.9334 128.837L61.953 127.117C61.1718 126.654 60.3238 126.296 59.413 126.039L58.8715 127.965ZM60.9334 128.837C61.5 129.173 61.94 129.605 62.2686 130.139L63.9719 129.091C63.4684 128.273 62.7905 127.613 61.953 127.117L60.9334 128.837ZM62.2833 130.162C62.5898 130.631 62.7832 131.295 62.7832 132.228H64.7832C64.7832 131.029 64.5347 129.951 63.9572 129.068L62.2833 130.162ZM62.7832 132.228C62.7832 133.169 62.5201 134.01 61.9869 134.778L63.6296 135.918C64.3964 134.814 64.7832 133.575 64.7832 132.228H62.7832ZM61.9762 134.793C61.4892 135.524 60.6949 136.155 59.5025 136.646L60.264 138.496C61.7235 137.895 62.8792 137.044 63.6403 135.903L61.9762 134.793ZM59.496 136.649C58.3612 137.126 56.8289 137.39 54.8522 137.39V139.39C56.9836 139.39 58.8053 139.108 60.2705 138.493L59.496 136.649ZM54.8522 137.39C53.8992 137.39 52.9883 137.34 52.1188 137.24L51.8917 139.228C52.8422 139.336 53.8292 139.39 54.8522 139.39V137.39ZM52.1221 137.241C51.2824 137.142 50.5302 136.995 49.8619 136.804L49.3125 138.728C50.1002 138.953 50.96 139.118 51.8884 139.227L52.1221 137.241ZM49.8713 136.807C49.2203 136.614 48.6583 136.39 48.1792 136.139L47.2512 137.911C47.8642 138.232 48.5502 138.502 49.3031 138.725L49.8713 136.807ZM48.7152 137.025V133.944H46.7152V137.025H48.7152ZM47.2894 134.849C48.2343 135.293 49.328 135.688 50.5633 136.037L51.1072 134.113C49.9505 133.786 48.9642 133.427 48.141 133.039L47.2894 134.849ZM50.5686 136.039C51.8877 136.404 53.3044 136.582 54.8132 136.582V134.582C53.462 134.582 52.2267 134.422 51.1018 134.111L50.5686 136.039ZM54.8132 136.582C55.9268 136.582 56.9561 136.457 57.892 136.194L57.3505 134.268C56.6223 134.473 55.7796 134.582 54.8132 134.582V136.582ZM57.8843 136.196C58.8653 135.928 59.71 135.492 60.3563 134.846L58.9421 133.432C58.6004 133.774 58.0932 134.066 57.3581 134.266L57.8843 136.196ZM60.3742 134.828C61.0837 134.081 61.3902 133.111 61.3902 132.033H59.3902C59.3902 132.723 59.2027 133.157 58.9242 133.45L60.3742 134.828ZM61.3902 132.033C61.3902 131.037 61.1122 130.131 60.4725 129.416L58.982 130.75C59.2262 131.023 59.3902 131.417 59.3902 132.033H61.3902ZM60.4892 129.435C59.8839 128.723 59.0275 128.25 58.0204 127.954L57.4561 129.872C58.2169 130.096 58.6865 130.403 58.9653 130.731L60.4892 129.435ZM58.0282 127.956C57.0414 127.657 55.8289 127.523 54.4232 127.523V129.523C55.7215 129.523 56.719 129.649 57.4482 129.87L58.0282 127.956ZM54.4232 127.523H51.6152V129.523H54.4232V127.523ZM52.6152 128.523V125.715H50.6152V128.523H52.6152ZM51.6152 126.715H53.8772V124.715H51.6152V126.715ZM53.8772 126.715C55.7423 126.715 57.3267 126.474 58.5692 125.929L57.7652 124.097C56.8757 124.488 55.6001 124.715 53.8772 124.715V126.715ZM58.5794 125.924C59.2626 125.615 59.8352 125.172 60.2318 124.567C60.6294 123.961 60.8052 123.262 60.8052 122.517H58.8052C58.8052 122.942 58.708 123.244 58.5597 123.47C58.4103 123.697 58.1639 123.917 57.7551 124.102L58.5794 125.924ZM60.8052 122.517C60.8052 121.185 60.211 120.113 59.0678 119.434L58.0467 121.154C58.5674 121.463 58.8052 121.873 58.8052 122.517H60.8052ZM59.0798 119.441C58.047 118.808 56.6621 118.553 55.0472 118.553V120.553C56.5003 120.553 57.4555 120.792 58.0347 121.147L59.0798 119.441ZM55.0472 118.553C53.8374 118.553 52.7346 118.676 51.7493 118.937L52.2611 120.871C53.0438 120.664 53.969 120.553 55.0472 120.553V118.553ZM51.7696 118.932C50.8461 119.156 49.8442 119.501 48.7671 119.959L49.5494 121.799C50.5522 121.373 51.4483 121.068 52.2408 120.876L51.7696 118.932ZM50.0726 120.474L48.8636 117.744L47.0349 118.554L48.2439 121.284L50.0726 120.474ZM48.3534 119.064C49.4009 118.601 50.4983 118.259 51.6473 118.039L51.2712 116.075C49.9761 116.323 48.7335 116.709 47.5451 117.234L48.3534 119.064ZM51.6473 118.039C52.8046 117.818 54.0025 117.706 55.2422 117.706V115.706C53.8819 115.706 52.5578 115.828 51.2712 116.075L51.6473 118.039ZM82.4344 118.422L83.1094 117.684L83.1094 117.684L82.4344 118.422ZM84.2674 138V139H85.2674V138H84.2674ZM81.7714 138L80.7955 138.218L80.9703 139H81.7714V138ZM81.1084 135.036L82.0842 134.818L81.9094 134.036H81.1084V135.036ZM80.9524 135.036V134.036H80.4691L80.1689 134.415L80.9524 135.036ZM79.0804 136.947L79.7011 137.731L79.7051 137.728L79.0804 136.947ZM76.8964 138.039L76.6256 137.076L76.6176 137.079L76.8964 138.039ZM70.5394 137.727L70.131 138.64L70.1398 138.644L70.5394 137.727ZM68.1994 135.699L67.346 136.22L67.3527 136.231L68.1994 135.699ZM69.7984 127.392L70.3621 128.218L70.371 128.212L69.7984 127.392ZM77.3644 125.52L77.3949 126.52L77.3973 126.519L77.3644 125.52ZM80.9134 125.403L80.9463 126.402L81.9134 126.371V125.403H80.9134ZM79.7824 120.528L79.1148 121.273L79.1148 121.273L79.7824 120.528ZM73.4644 120.021L73.7655 120.975L73.7768 120.971L73.7881 120.967L73.4644 120.021ZM70.6954 121.113L69.7698 121.492L70.1731 122.478L71.1316 122.013L70.6954 121.113ZM69.6424 118.539L69.1653 117.66L68.3774 118.088L68.7168 118.918L69.6424 118.539ZM72.8794 117.291L73.1408 118.256L73.1501 118.254L73.1594 118.251L72.8794 117.291ZM77.7934 127.899L77.7554 126.9L77.7534 126.9L77.7934 127.899ZM72.3724 129.147L71.7891 128.335L71.7792 128.342L72.3724 129.147ZM71.9434 134.802L71.3294 135.591L71.3363 135.597L71.3434 135.602L71.9434 134.802ZM79.1194 134.178L79.7545 134.95L79.7645 134.942L79.1194 134.178ZM80.8744 127.782H81.8744V126.743L80.8364 126.783L80.8744 127.782ZM76.7794 117.745C79.2074 117.745 80.7992 118.281 81.7594 119.16L83.1094 117.684C81.6256 116.327 79.4473 115.745 76.7794 115.745V117.745ZM81.7594 119.16C82.6923 120.013 83.2674 121.467 83.2674 123.765H85.2674C85.2674 121.175 84.6204 119.067 83.1094 117.684L81.7594 119.16ZM83.2674 123.765V138H85.2674V123.765H83.2674ZM84.2674 137H81.7714V139H84.2674V137ZM82.7472 137.782L82.0842 134.818L80.1325 135.254L80.7955 138.218L82.7472 137.782ZM81.1084 134.036H80.9524V136.036H81.1084V134.036ZM80.1689 134.415C79.6105 135.119 79.0386 135.7 78.4557 136.166L79.7051 137.728C80.4221 137.154 81.0982 136.461 81.7359 135.657L80.1689 134.415ZM78.4597 136.163C77.948 136.568 77.3413 136.875 76.6256 137.076L77.1671 139.002C78.1154 138.735 78.9648 138.314 79.7011 137.731L78.4597 136.163ZM76.6176 137.079C75.9299 137.278 75.0421 137.39 73.9324 137.39V139.39C75.1626 139.39 76.2508 139.268 77.1752 138.999L76.6176 137.079ZM73.9324 137.39C72.8042 137.39 71.8117 137.191 70.9389 136.81L70.1398 138.644C71.295 139.147 72.5645 139.39 73.9324 139.39V137.39ZM70.9477 136.814C70.1389 136.452 69.512 135.908 69.046 135.167L67.3527 136.231C68.0307 137.31 68.9638 138.118 70.131 138.64L70.9477 136.814ZM69.0526 135.178C68.6 134.437 68.3414 133.46 68.3414 132.189H66.3414C66.3414 133.726 66.6547 135.089 67.3461 136.22L69.0526 135.178ZM68.3414 132.189C68.3414 130.42 69.0126 129.139 70.3621 128.218L69.2346 126.566C67.3082 127.881 66.3414 129.798 66.3414 132.189H68.3414ZM70.371 128.212C71.7727 127.233 74.0615 126.621 77.3949 126.52L77.3338 124.52C73.8553 124.627 71.1 125.263 69.2258 126.572L70.371 128.212ZM77.3973 126.519L80.9463 126.402L80.8804 124.404L77.3314 124.521L77.3973 126.519ZM81.9134 125.403V124.155H79.9134V125.403H81.9134ZM81.9134 124.155C81.9134 122.323 81.5263 120.748 80.4499 119.783L79.1148 121.273C79.5464 121.66 79.9134 122.503 79.9134 124.155H81.9134ZM80.4499 119.783C79.4551 118.892 78.1191 118.514 76.5844 118.514V120.514C77.8057 120.514 78.6016 120.812 79.1148 121.273L80.4499 119.783ZM76.5844 118.514C75.3873 118.514 74.2376 118.7 73.1407 119.075L73.7881 120.967C74.6672 120.666 75.5974 120.514 76.5844 120.514V118.514ZM73.1632 119.067C72.1329 119.393 71.1643 119.774 70.2591 120.213L71.1316 122.013C71.9424 121.62 72.8199 121.273 73.7655 120.975L73.1632 119.067ZM71.6209 120.734L70.5679 118.16L68.7168 118.918L69.7698 121.492L71.6209 120.734ZM70.1195 119.418C70.9467 118.969 71.9501 118.579 73.1408 118.256L72.6179 116.326C71.3126 116.679 70.158 117.121 69.1653 117.66L70.1195 119.418ZM73.1594 118.251C74.3128 117.915 75.5183 117.745 76.7794 117.745V115.745C75.3364 115.745 73.9419 115.939 72.5994 116.331L73.1594 118.251ZM77.7534 126.9C75.1294 127.005 73.0598 127.422 71.7892 128.335L72.9556 129.959C73.7129 129.416 75.2574 129.001 77.8333 128.898L77.7534 126.9ZM71.7792 128.342C70.5123 129.275 69.8904 130.614 69.8904 132.228H71.8904C71.8904 131.19 72.2564 130.475 72.9656 129.952L71.7792 128.342ZM69.8904 132.228C69.8904 133.601 70.3112 134.799 71.3294 135.591L72.5573 134.013C72.1715 133.713 71.8904 133.195 71.8904 132.228H69.8904ZM71.3434 135.602C72.2809 136.305 73.4285 136.621 74.7124 136.621V134.621C73.7602 134.621 73.0618 134.391 72.5434 134.002L71.3434 135.602ZM74.7124 136.621C76.6714 136.621 78.3765 136.083 79.7545 134.95L78.4843 133.406C77.5223 134.197 76.2893 134.621 74.7124 134.621V136.621ZM79.7645 134.942C81.2271 133.707 81.8744 131.875 81.8744 129.654H79.8744C79.8744 131.489 79.3516 132.673 78.4742 133.414L79.7645 134.942ZM81.8744 129.654V127.782H79.8744V129.654H81.8744ZM80.8364 126.783L77.7554 126.9L77.8313 128.898L80.9123 128.781L80.8364 126.783ZM113.149 117.096H114.149V116.096H113.149V117.096ZM113.149 138V139H114.149V138H113.149ZM110.068 138H109.068V139H110.068V138ZM110.107 122.946L109.11 122.859L109.109 122.881L109.108 122.903L110.107 122.946ZM110.263 121.191L111.259 121.282L111.358 120.191H110.263V121.191ZM110.146 121.191V120.191H109.472L109.219 120.815L110.146 121.191ZM103.321 138V139H103.994L104.247 138.376L103.321 138ZM100.435 138L99.5044 138.367L99.7541 139H100.435V138ZM93.8047 121.191L94.7349 120.824L94.4852 120.191H93.8047V121.191ZM93.6877 121.191V120.191H92.5927L92.6918 121.282L93.6877 121.191ZM93.7657 122.946H92.7657V122.968L92.7666 122.989L93.7657 122.946ZM93.8047 138V139H94.8047V138H93.8047ZM90.7237 138H89.7237V139H90.7237V138ZM90.7237 117.096V116.096H89.7237V117.096H90.7237ZM95.2867 117.096L96.2177 116.731L95.9687 116.096H95.2867V117.096ZM101.878 133.905L100.947 134.27L101.87 136.623L102.806 134.276L101.878 133.905ZM108.586 117.096V116.096H107.908L107.657 116.725L108.586 117.096ZM112.149 117.096V138H114.149V117.096H112.149ZM113.149 137H110.068V139H113.149V137ZM111.068 138V124.662H109.068V138H111.068ZM111.068 124.662C111.068 124.132 111.08 123.574 111.106 122.989L109.108 122.903C109.081 123.514 109.068 124.1 109.068 124.662H111.068ZM111.103 123.033C111.155 122.436 111.207 121.852 111.259 121.282L109.267 121.1C109.215 121.674 109.163 122.26 109.11 122.859L111.103 123.033ZM110.263 120.191H110.146V122.191H110.263V120.191ZM109.219 120.815L102.394 137.624L104.247 138.376L111.072 121.567L109.219 120.815ZM103.321 137H100.435V139H103.321V137ZM101.365 137.633L94.7349 120.824L92.8744 121.558L99.5044 138.367L101.365 137.633ZM93.8047 120.191H93.6877V122.191H93.8047V120.191ZM92.6918 121.282C92.741 121.822 92.7657 122.377 92.7657 122.946H94.7657C94.7657 122.319 94.7384 121.704 94.6836 121.1L92.6918 121.282ZM92.7666 122.989C92.792 123.572 92.8047 124.169 92.8047 124.779H94.8047C94.8047 124.141 94.7914 123.516 94.7647 122.903L92.7666 122.989ZM92.8047 124.779V138H94.8047V124.779H92.8047ZM93.8047 137H90.7237V139H93.8047V137ZM91.7237 138V117.096H89.7237V138H91.7237ZM90.7237 118.096H95.2867V116.096H90.7237V118.096ZM94.3557 117.461L100.947 134.27L102.809 133.54L96.2177 116.731L94.3557 117.461ZM102.806 134.276L109.514 117.467L107.657 116.725L100.949 133.534L102.806 134.276ZM108.586 118.096H113.149V116.096H108.586V118.096ZM132.496 117.876L131.974 118.729L131.982 118.733L132.496 117.876ZM135.46 121.191L134.556 121.618L134.561 121.628L134.566 121.638L135.46 121.191ZM136.513 128.211V129.211H137.513V128.211H136.513ZM122.2 128.211V127.211H121.178L121.201 128.233L122.2 128.211ZM123.994 133.632L123.257 134.308L123.265 134.316L123.272 134.324L123.994 133.632ZM132.379 135.114L132.604 136.088L132.613 136.086L132.622 136.084L132.379 135.114ZM135.577 134.022H136.577V132.505L135.183 133.103L135.577 134.022ZM135.577 137.025L135.979 137.941L136.577 137.678V137.025H135.577ZM132.418 138.039L132.222 137.058L132.211 137.061L132.199 137.063L132.418 138.039ZM123.448 137.181L122.977 138.063L122.983 138.066L123.448 137.181ZM119.899 133.593L119.011 134.052L119.015 134.06L119.02 134.069L119.899 133.593ZM119.782 121.815L118.879 121.385L118.874 121.397L119.782 121.815ZM123.019 118.032L122.487 117.186L122.479 117.19L123.019 118.032ZM123.955 121.113L123.213 120.443L123.212 120.444L123.955 121.113ZM122.278 125.481L121.283 125.384L121.176 126.481H122.278V125.481ZM132.925 125.481V126.481H133.925V125.481H132.925ZM132.379 122.361L131.455 122.742L131.455 122.742L132.379 122.361ZM130.702 120.294L130.121 121.108L130.137 121.119L130.154 121.13L130.702 120.294ZM127.894 117.706C129.541 117.706 130.886 118.063 131.974 118.729L133.019 117.023C131.558 116.129 129.835 115.706 127.894 115.706V117.706ZM131.982 118.733C133.105 119.407 133.961 120.359 134.556 121.618L136.364 120.764C135.608 119.163 134.488 117.905 133.011 117.019L131.982 118.733ZM134.566 121.638C135.185 122.877 135.513 124.369 135.513 126.144H137.513C137.513 124.123 137.139 122.313 136.355 120.744L134.566 121.638ZM135.513 126.144V128.211H137.513V126.144H135.513ZM136.513 127.211H122.2V129.211H136.513V127.211ZM121.201 128.233C121.256 130.745 121.894 132.821 123.257 134.308L124.732 132.956C123.806 131.947 123.249 130.409 123.2 128.189L121.201 128.233ZM123.272 134.324C124.672 135.786 126.584 136.465 128.869 136.465V134.465C126.995 134.465 125.656 133.922 124.717 132.94L123.272 134.324ZM128.869 136.465C130.251 136.465 131.5 136.343 132.604 136.088L132.154 134.14C131.231 134.353 130.139 134.465 128.869 134.465V136.465ZM132.622 136.084C133.719 135.81 134.835 135.428 135.971 134.941L135.183 133.103C134.135 133.552 133.12 133.898 132.137 134.144L132.622 136.084ZM134.577 134.022V137.025H136.577V134.022H134.577ZM135.175 136.109C134.169 136.551 133.185 136.866 132.222 137.058L132.614 139.02C133.732 138.796 134.854 138.435 135.979 137.941L135.175 136.109ZM132.199 137.063C131.251 137.277 130.093 137.39 128.713 137.39V139.39C130.194 139.39 131.506 139.269 132.638 139.015L132.199 137.063ZM128.713 137.39C126.876 137.39 125.285 137.016 123.913 136.296L122.983 138.066C124.68 138.958 126.598 139.39 128.713 139.39V137.39ZM123.92 136.299C122.594 135.591 121.549 134.541 120.779 133.117L119.02 134.069C119.966 135.817 121.286 137.159 122.977 138.063L123.92 136.299ZM120.788 133.134C120.047 131.698 119.651 129.901 119.651 127.704H117.651C117.651 130.135 118.088 132.264 119.011 134.052L120.788 133.134ZM119.651 127.704C119.651 125.523 120.011 123.71 120.691 122.233L118.874 121.397C118.046 123.196 117.651 125.309 117.651 127.704H119.651ZM120.685 122.245C121.394 120.757 122.355 119.646 123.559 118.874L122.479 117.19C120.928 118.186 119.731 119.597 118.879 121.385L120.685 122.245ZM123.552 118.878C124.779 118.106 126.215 117.706 127.894 117.706V115.706C125.882 115.706 124.068 116.19 122.487 117.186L123.552 118.878ZM127.855 118.514C125.978 118.514 124.392 119.136 123.213 120.443L124.698 121.783C125.443 120.958 126.456 120.514 127.855 120.514V118.514ZM123.212 120.444C122.091 121.69 121.479 123.372 121.283 125.384L123.274 125.578C123.442 123.846 123.948 122.616 124.699 121.782L123.212 120.444ZM122.278 126.481H132.925V124.481H122.278V126.481ZM133.925 125.481C133.925 124.186 133.729 123.011 133.304 121.98L131.455 122.742C131.758 123.479 131.925 124.384 131.925 125.481H133.925ZM133.304 121.98C132.868 120.922 132.183 120.069 131.25 119.458L130.154 121.13C130.729 121.507 131.163 122.032 131.455 122.742L133.304 121.98ZM131.284 119.48C130.341 118.807 129.17 118.514 127.855 118.514V120.514C128.881 120.514 129.608 120.741 130.121 121.108L131.284 119.48ZM156.265 119.982V120.982H157.265V119.982H156.265ZM149.44 119.982V118.982H148.44V119.982H149.44ZM149.44 138V139H150.44V138H149.44ZM146.047 138H145.047V139H146.047V138ZM146.047 119.982H147.047V118.982H146.047V119.982ZM139.3 119.982H138.3V120.982H139.3V119.982ZM139.3 117.096V116.096H138.3V117.096H139.3ZM156.265 117.096H157.265V116.096H156.265V117.096ZM156.265 118.982H149.44V120.982H156.265V118.982ZM148.44 119.982V138H150.44V119.982H148.44ZM149.44 137H146.047V139H149.44V137ZM147.047 138V119.982H145.047V138H147.047ZM146.047 118.982H139.3V120.982H146.047V118.982ZM140.3 119.982V117.096H138.3V119.982H140.3ZM139.3 118.096H156.265V116.096H139.3V118.096ZM155.265 117.096V119.982H157.265V117.096H155.265ZM172.746 117.096V116.096H172.294L171.995 116.435L172.746 117.096ZM176.49 117.096L177.238 117.76L178.715 116.096H176.49V117.096ZM167.559 127.158L166.811 126.494L166.22 127.16L166.813 127.824L167.559 127.158ZM177.231 138V139H179.463L177.977 137.334L177.231 138ZM173.253 138L172.506 138.665L172.804 139H173.253V138ZM163.815 127.392L164.562 126.727L162.815 124.764V127.392H163.815ZM163.815 138V139H164.815V138H163.815ZM160.383 138H159.383V139H160.383V138ZM160.383 117.096V116.096H159.383V117.096H160.383ZM163.815 117.096H164.815V116.096H163.815V117.096ZM163.815 127.236H162.815V129.884L164.565 127.897L163.815 127.236ZM172.746 118.096H176.49V116.096H172.746V118.096ZM175.742 116.432L166.811 126.494L168.307 127.822L177.238 117.76L175.742 116.432ZM166.813 127.824L176.485 138.666L177.977 137.334L168.305 126.492L166.813 127.824ZM177.231 137H173.253V139H177.231V137ZM174 137.335L164.562 126.727L163.068 128.057L172.506 138.665L174 137.335ZM162.815 127.392V138H164.815V127.392H162.815ZM163.815 137H160.383V139H163.815V137ZM161.383 138V117.096H159.383V138H161.383ZM160.383 118.096H163.815V116.096H160.383V118.096ZM162.815 117.096V127.236H164.815V117.096H162.815ZM164.565 127.897L173.496 117.757L171.995 116.435L163.064 126.575L164.565 127.897ZM194.597 118.422L195.272 117.684L195.272 117.684L194.597 118.422ZM196.43 138V139H197.43V138H196.43ZM193.934 138L192.959 138.218L193.133 139H193.934V138ZM193.271 135.036L194.247 134.818L194.072 134.036H193.271V135.036ZM193.115 135.036V134.036H192.632L192.332 134.415L193.115 135.036ZM191.243 136.947L191.864 137.731L191.868 137.728L191.243 136.947ZM189.059 138.039L188.789 137.076L188.781 137.079L189.059 138.039ZM182.702 137.727L182.294 138.64L182.303 138.644L182.702 137.727ZM180.362 135.699L179.509 136.22L179.516 136.231L180.362 135.699ZM181.961 127.392L182.525 128.218L182.534 128.212L181.961 127.392ZM189.527 125.52L189.558 126.52L189.56 126.519L189.527 125.52ZM193.076 125.403L193.109 126.402L194.076 126.371V125.403H193.076ZM191.945 120.528L191.278 121.273L191.278 121.273L191.945 120.528ZM185.627 120.021L185.929 120.975L185.94 120.971L185.951 120.967L185.627 120.021ZM182.858 121.113L181.933 121.492L182.336 122.478L183.295 122.013L182.858 121.113ZM181.805 118.539L181.328 117.66L180.54 118.088L180.88 118.918L181.805 118.539ZM185.042 117.291L185.304 118.256L185.313 118.254L185.322 118.251L185.042 117.291ZM189.956 127.899L189.919 126.9L189.916 126.9L189.956 127.899ZM184.535 129.147L183.952 128.335L183.942 128.342L184.535 129.147ZM184.106 134.802L183.493 135.591L183.499 135.597L183.506 135.602L184.106 134.802ZM191.282 134.178L191.918 134.95L191.928 134.942L191.282 134.178ZM193.037 127.782H194.037V126.743L193 126.783L193.037 127.782ZM188.942 117.745C191.37 117.745 192.962 118.281 193.922 119.16L195.272 117.684C193.789 116.327 191.61 115.745 188.942 115.745V117.745ZM193.922 119.16C194.855 120.013 195.43 121.467 195.43 123.765H197.43C197.43 121.175 196.783 119.067 195.272 117.684L193.922 119.16ZM195.43 123.765V138H197.43V123.765H195.43ZM196.43 137H193.934V139H196.43V137ZM194.91 137.782L194.247 134.818L192.296 135.254L192.959 138.218L194.91 137.782ZM193.271 134.036H193.115V136.036H193.271V134.036ZM192.332 134.415C191.774 135.119 191.202 135.7 190.619 136.166L191.868 137.728C192.585 137.154 193.261 136.461 193.899 135.657L192.332 134.415ZM190.623 136.163C190.111 136.568 189.504 136.875 188.789 137.076L189.33 139.002C190.278 138.735 191.128 138.314 191.864 137.731L190.623 136.163ZM188.781 137.079C188.093 137.278 187.205 137.39 186.095 137.39V139.39C187.326 139.39 188.414 139.268 189.338 138.999L188.781 137.079ZM186.095 137.39C184.967 137.39 183.975 137.191 183.102 136.81L182.303 138.644C183.458 139.147 184.728 139.39 186.095 139.39V137.39ZM183.111 136.814C182.302 136.452 181.675 135.908 181.209 135.167L179.516 136.231C180.194 137.31 181.127 138.118 182.294 138.64L183.111 136.814ZM181.216 135.178C180.763 134.437 180.504 133.46 180.504 132.189H178.504C178.504 133.726 178.818 135.089 179.509 136.22L181.216 135.178ZM180.504 132.189C180.504 130.42 181.176 129.139 182.525 128.218L181.398 126.566C179.471 127.881 178.504 129.798 178.504 132.189H180.504ZM182.534 128.212C183.936 127.233 186.225 126.621 189.558 126.52L189.497 124.52C186.018 124.627 183.263 125.263 181.389 126.572L182.534 128.212ZM189.56 126.519L193.109 126.402L193.044 124.404L189.495 124.521L189.56 126.519ZM194.076 125.403V124.155H192.076V125.403H194.076ZM194.076 124.155C194.076 122.323 193.689 120.748 192.613 119.783L191.278 121.273C191.71 121.66 192.076 122.503 192.076 124.155H194.076ZM192.613 119.783C191.618 118.892 190.282 118.514 188.747 118.514V120.514C189.969 120.514 190.765 120.812 191.278 121.273L192.613 119.783ZM188.747 118.514C187.55 118.514 186.401 118.7 185.304 119.075L185.951 120.967C186.83 120.666 187.76 120.514 188.747 120.514V118.514ZM185.326 119.067C184.296 119.393 183.327 119.774 182.422 120.213L183.295 122.013C184.105 121.62 184.983 121.273 185.929 120.975L185.326 119.067ZM183.784 120.734L182.731 118.16L180.88 118.918L181.933 121.492L183.784 120.734ZM182.283 119.418C183.11 118.969 184.113 118.579 185.304 118.256L184.781 116.326C183.476 116.679 182.321 117.121 181.328 117.66L182.283 119.418ZM185.322 118.251C186.476 117.915 187.681 117.745 188.942 117.745V115.745C187.5 115.745 186.105 115.939 184.762 116.331L185.322 118.251ZM189.916 126.9C187.292 127.005 185.223 127.422 183.952 128.335L185.119 129.959C185.876 129.416 187.42 129.001 189.996 128.898L189.916 126.9ZM183.942 128.342C182.675 129.275 182.053 130.614 182.053 132.228H184.053C184.053 131.19 184.419 130.475 185.129 129.952L183.942 128.342ZM182.053 132.228C182.053 133.601 182.474 134.799 183.493 135.591L184.72 134.013C184.335 133.713 184.053 133.195 184.053 132.228H182.053ZM183.506 135.602C184.444 136.305 185.592 136.621 186.875 136.621V134.621C185.923 134.621 185.225 134.391 184.706 134.002L183.506 135.602ZM186.875 136.621C188.834 136.621 190.54 136.083 191.918 134.95L190.647 133.406C189.685 134.197 188.452 134.621 186.875 134.621V136.621ZM191.928 134.942C193.39 133.707 194.037 131.875 194.037 129.654H192.037C192.037 131.489 191.515 132.673 190.637 133.414L191.928 134.942ZM194.037 129.654V127.782H192.037V129.654H194.037ZM193 126.783L189.919 126.9L189.994 128.898L193.075 128.781L193 126.783Z" fill="white"/>
<path d="M5 21V75.4688H14.7351V30.7073H66.3854V21H5Z" stroke="white" stroke-width="2"/>
<path d="M254 189.594V135.125H244.265V179.886H192.615V189.594H254Z" stroke="white" stroke-width="2"/>
</g>
<defs>
<filter id="filter0_d_9_6558" x="0" y="16" width="259" height="178.594" filterUnits="userSpaceOnUse" color-interpolation-filters="sRGB">
<feFlood flood-opacity="0" result="BackgroundImageFix"/>
<feColorMatrix in="SourceAlpha" type="matrix" values="0 0 0 0 0 0 0 0 0 0 0 0 0 0 0 0 0 0 127 0" result="hardAlpha"/>
<feOffset/>
<feGaussianBlur stdDeviation="2"/>
<feComposite in2="hardAlpha" operator="out"/>
<feColorMatrix type="matrix" values="0 0 0 0 0.701961 0 0 0 0 0.466667 0 0 0 0 1 0 0 0 1 0"/>
<feBlend mode="normal" in2="BackgroundImageFix" result="effect1_dropShadow_9_6558"/>
<feBlend mode="normal" in="SourceGraphic" in2="effect1_dropShadow_9_6558" result="shape"/>
</filter>
</defs>
</svg>
